<svg width="14" height="16" viewBox="0 0 14 16" fill="none" xmlns="http://www.w3.org/2000/svg">
<path d="M12.5928 0H8.87629C9.02062 3.41801 6.90979 5.00693 4.87113 5.00693C2.63402 5.00693 1.17268 3.39954 1.17268 0H0C0 8.92379 9.59794 7.13164 9.99485 1.23788H11.366C11.366 1.95843 10.6804 5.47261 7.81186 6.61432C4.5067 7.92979 1.2268 7.16243 0 6.61432V16H3.62629V10.9376C7.57732 10.8822 8.33505 10.1986 8.58763 10.1432C8.78969 10.0988 10.7887 13.2286 11.7629 14.7991H10.3737L8.01031 11.3256L6.78351 11.6028L9.74227 16H14C12.3883 13.5858 9.13608 8.73164 9.02062 8.62818C7.2165 9.8254 3.87887 9.80447 2.43557 9.64434V14.7991H1.17268V8.27714C3.51804 8.86836 7.34278 8.67854 9.59794 7.00231C12.2825 5.00693 12.7131 1.50269 12.5928 0Z" fill="white"/>
</svg>
