<svg width="25" height="25" viewBox="0 0 25 25" fill="none" xmlns="http://www.w3.org/2000/svg">
<rect width="25" height="25" fill="#1746A2"/>
<path d="M18.5928 5H14.8763C15.0206 8.41801 12.9098 10.0069 10.8711 10.0069C8.63402 10.0069 7.17268 8.39954 7.17268 5H6C6 13.9238 15.5979 12.1316 15.9948 6.23788H17.366C17.366 6.95843 16.6804 10.4726 13.8119 11.6143C10.5067 12.9298 7.2268 12.1624 6 11.6143V21H9.62629V15.9376C13.5773 15.8822 14.3351 15.1986 14.5876 15.1432C14.7897 15.0988 16.7887 18.2286 17.7629 19.7991H16.3737L14.0103 16.3256L12.7835 16.6028L15.7423 21H20C18.3883 18.5858 15.1361 13.7316 15.0206 13.6282C13.2165 14.8254 9.87887 14.8045 8.43557 14.6443V19.7991H7.17268V13.2771C9.51804 13.8684 13.3428 13.6785 15.5979 12.0023C18.2825 10.0069 18.7131 6.50269 18.5928 5Z" fill="white"/>
</svg>
